<?xml version="1.0" encoding="utf-8"?>
<!-- Generator: Adobe Illustrator 26.1.0, SVG Export Plug-In . SVG Version: 6.00 Build 0)  -->
<svg version="1.1" id="Layer_1" xmlns="http://www.w3.org/2000/svg" xmlns:xlink="http://www.w3.org/1999/xlink" x="0px" y="0px"
	 viewBox="0 0 612 792" style="enable-background:new 0 0 612 792;" xml:space="preserve">
<style type="text/css">
	.st0{fill-rule:evenodd;clip-rule:evenodd;fill:#231F20;}
	.st1{fill-rule:evenodd;clip-rule:evenodd;fill:#FFFFFF;}
</style>
<g id="Layer_2">
	<g id="XMLID_8_">
		
			<ellipse id="XMLID_15_" transform="matrix(0.7071 -0.7071 0.7071 0.7071 -190.7425 332.5069)" class="st0" cx="306" cy="396.5" rx="224.85" ry="224.85"/>
		<path id="XMLID_3_" class="st1" d="M239.87,253.27h132.27c42.49,0,77.44,34.95,77.44,77.44v131.58
			c0,42.49-34.95,77.44-77.44,77.44H239.87c-42.49,0-77.44-34.95-77.44-77.44V330.71C162.43,288.22,197.38,253.27,239.87,253.27
			L239.87,253.27z M383.1,303.3L383.1,303.3c8.91,0,16.45,7.54,16.45,16.45l0,0c0,8.91-7.54,16.45-16.45,16.45l0,0
			c-9.59,0-16.45-7.54-16.45-16.45l0,0C366.65,310.84,373.5,303.3,383.1,303.3L383.1,303.3z M305.66,318.37h0.69
			c42.49,0,78.13,35.64,78.13,78.13l0,0c0,43.17-35.64,78.13-78.13,78.13h-0.69c-42.49,0-77.44-34.95-77.44-78.13l0,0
			C228.22,354.01,263.17,318.37,305.66,318.37L305.66,318.37z M305.66,345.1h0.69c28.1,0,51.4,23.3,51.4,51.4l0,0
			c0,28.78-23.3,52.08-51.4,52.08h-0.69c-28.1,0-51.4-23.3-51.4-52.08l0,0C254.26,368.4,277.56,345.1,305.66,345.1L305.66,345.1z
			 M240.55,277.94h130.89c29.47,0,53.45,23.99,53.45,53.45V461.6c0,29.47-23.99,53.45-53.45,53.45H240.55
			c-29.47,0-53.45-23.99-53.45-53.45V331.4C187.1,301.93,211.08,277.94,240.55,277.94L240.55,277.94z"/>
	</g>
</g>
</svg>
