<?xml version="1.0" encoding="utf-8"?>
<!-- Generator: Adobe Illustrator 26.1.0, SVG Export Plug-In . SVG Version: 6.00 Build 0)  -->
<svg version="1.1" id="Layer_1" xmlns="http://www.w3.org/2000/svg" xmlns:xlink="http://www.w3.org/1999/xlink" x="0px" y="0px"
	 viewBox="0 0 612 792" style="enable-background:new 0 0 612 792;" xml:space="preserve">
<style type="text/css">
	.st0{fill-rule:evenodd;clip-rule:evenodd;fill:#231F20;}
	.st1{fill-rule:evenodd;clip-rule:evenodd;fill:#FFFFFF;}
</style>
<g id="XMLID_12_">
	
		<ellipse id="XMLID_37_" transform="matrix(0.7071 -0.7071 0.7071 0.7071 -190.5961 332.8604)" class="st0" cx="306.5" cy="396.5" rx="224.85" ry="224.85"/>
	<path id="XMLID_13_" class="st1" d="M181.45,351.37h50.64V521.4h-50.64V351.37z M206.45,265.1c16.88,0,30.63,13.75,30.63,30.63
		c0,16.88-13.75,30.63-30.63,30.63c-16.88,0-30.01-13.75-30.01-30.63C176.44,278.85,189.57,265.1,206.45,265.1L206.45,265.1z
		 M262.09,351.37h50.01v23.76c10.63-15.63,28.13-25.63,48.14-25.63h13.75c31.88,0,57.51,26.26,57.51,57.51v25.63v30.63v58.14h-50.01
		v-0.63v-15l0,0v-76.27l0,0c-0.63-19.38-13.75-34.38-33.13-34.38l0,0c-19.38,0-35.63,15-36.26,34.38l0,0v66.26v25.63h-50.01V351.37z
		"/>
</g>
</svg>
