<?xml version="1.0" encoding="utf-8"?>
<!-- Generator: Adobe Illustrator 26.1.0, SVG Export Plug-In . SVG Version: 6.00 Build 0)  -->
<svg version="1.1" id="Layer_1" xmlns="http://www.w3.org/2000/svg" xmlns:xlink="http://www.w3.org/1999/xlink" x="0px" y="0px"
	 viewBox="0 0 612 792" style="enable-background:new 0 0 612 792;" xml:space="preserve">
<style type="text/css">
	.st0{fill-rule:evenodd;clip-rule:evenodd;fill:#231F20;}
	.st1{fill-rule:evenodd;clip-rule:evenodd;fill:#FFFFFF;}
</style>
<g id="XMLID_10_">
	
		<ellipse id="XMLID_30_" transform="matrix(0.7071 -0.7071 0.7071 0.7071 -190.389 332.3604)" class="st0" cx="306" cy="396" rx="224.85" ry="224.85"/>
	<path id="XMLID_36_" class="st1" d="M308.49,356.04c-11.08-58.35,59.08-93.06,100.44-50.96c0,0,18.46-5.17,34.71-15.51
		c0,0-5.91,19.94-25.85,32.5c0,0,22.16-2.95,31.76-8.86c0,0-9.6,19.94-27.33,27.33c9.6,133.68-134.42,214.92-251.11,148.45
		c0,0,57.61,2.95,81.98-25.11c0,0-35.45,2.95-53.18-39.88c0,0,13.29,5.17,26.59-1.48c0,0-41.36-6.65-45.05-56.13
		c0,0,13.29,10.34,28.07,6.65c0,0-45.79-27.33-19.94-76.81C189.58,296.21,238.32,358.25,308.49,356.04L308.49,356.04z"/>
</g>
</svg>
